<svg id="visual" viewBox="0 0 960 540" width="960" height="540" xmlns="http://www.w3.org/2000/svg" xmlns:xlink="http://www.w3.org/1999/xlink" version="1.1"><path d="M0 109L87 109L87 98L175 98L175 66L262 66L262 82L349 82L349 109L436 109L436 87L524 87L524 71L611 71L611 109L698 109L698 125L785 125L785 93L873 93L873 77L960 77L960 120L960 0L960 0L873 0L873 0L785 0L785 0L698 0L698 0L611 0L611 0L524 0L524 0L436 0L436 0L349 0L349 0L262 0L262 0L175 0L175 0L87 0L87 0L0 0Z" fill="#000814"></path><path d="M0 276L87 276L87 249L175 249L175 206L262 206L262 185L349 185L349 185L436 185L436 212L524 212L524 314L611 314L611 185L698 185L698 244L785 244L785 201L873 201L873 298L960 298L960 255L960 118L960 75L873 75L873 91L785 91L785 123L698 123L698 107L611 107L611 69L524 69L524 85L436 85L436 107L349 107L349 80L262 80L262 64L175 64L175 96L87 96L87 107L0 107Z" fill="#071423"></path><path d="M0 325L87 325L87 325L175 325L175 244L262 244L262 244L349 244L349 244L436 244L436 293L524 293L524 347L611 347L611 222L698 222L698 303L785 303L785 271L873 271L873 341L960 341L960 325L960 253L960 296L873 296L873 199L785 199L785 242L698 242L698 183L611 183L611 312L524 312L524 210L436 210L436 183L349 183L349 183L262 183L262 204L175 204L175 247L87 247L87 274L0 274Z" fill="#071c33"></path><path d="M0 384L87 384L87 411L175 411L175 379L262 379L262 374L349 374L349 390L436 390L436 460L524 460L524 422L611 422L611 379L698 379L698 428L785 428L785 411L873 411L873 444L960 444L960 455L960 323L960 339L873 339L873 269L785 269L785 301L698 301L698 220L611 220L611 345L524 345L524 291L436 291L436 242L349 242L349 242L262 242L262 242L175 242L175 323L87 323L87 323L0 323Z" fill="#052443"></path><path d="M0 449L87 449L87 438L175 438L175 444L262 444L262 449L349 449L349 460L436 460L436 487L524 487L524 476L611 476L611 455L698 455L698 498L785 498L785 460L873 460L873 482L960 482L960 482L960 453L960 442L873 442L873 409L785 409L785 426L698 426L698 377L611 377L611 420L524 420L524 458L436 458L436 388L349 388L349 372L262 372L262 377L175 377L175 409L87 409L87 382L0 382Z" fill="#022d54"></path><path d="M0 541L87 541L87 541L175 541L175 541L262 541L262 541L349 541L349 541L436 541L436 541L524 541L524 541L611 541L611 541L698 541L698 541L785 541L785 541L873 541L873 541L960 541L960 541L960 480L960 480L873 480L873 458L785 458L785 496L698 496L698 453L611 453L611 474L524 474L524 485L436 485L436 458L349 458L349 447L262 447L262 442L175 442L175 436L87 436L87 447L0 447Z" fill="#003566"></path></svg>